<svg id="Layer_1" data-name="Layer 1" xmlns="http://www.w3.org/2000/svg" xmlns:xlink="http://www.w3.org/1999/xlink" viewBox="0 0 68.95 81.94"><defs><style>.cls-1{fill:url(#linear-gradient);}.cls-2{fill:#fff;}</style><linearGradient id="linear-gradient" x1="5.6" y1="54.27" x2="71.2" y2="33.04" gradientUnits="userSpaceOnUse"><stop offset="0" stop-color="blue"/><stop offset="1" stop-color="aqua"/></linearGradient></defs><title>studentbizlogo</title><path class="cls-1" d="M67,18.61H53.05L53,10.85s-14.45-24.27-34,0v9l-14.55.08S.33,20.57,1,29.85L8.18,77s.8,5,3,5H58.84s4.47-2,4.83-5.59l6.24-52.36S70.09,19.68,67,18.61Zm-20.07.44H25V14.24S35.39-4,46.9,14.24Z" transform="translate(-0.96 -0.06)"/><path class="cls-2" d="M57.07,47.55v5s-2.14,2.59,0,3.93h1s1.78-.62,0-3.84l-.09-5Z" transform="translate(-0.96 -0.06)"/><path class="cls-2" d="M22.9,58.12v-6L15,48.4s-2.68-.18,0-2.41l21.95-8.11L56.08,45.1s7.41,2.23,0,2.9h-5L51,58.12H49.22s-10.44-6.77-24.09,0Z" transform="translate(-0.96 -0.06)"/></svg>