<svg id="Layer_1" data-name="Layer 1" xmlns="http://www.w3.org/2000/svg" viewBox="0 0 180.84 151.26"><title>art</title><path d="M159.92,43.54c-4.76,0-37.87,5.08-43.44-10,0,0,.49-36.06-38.2-32.62S8.77,39.93,8.44,43.54-6.48,70.43,3.85,99.28,31.07,157.64,103.2,151,181,82.72,181,67,164.67,43.54,159.92,43.54ZM30.16,114.36c-7.65,0-13.85-6.53-13.85-14.59s6.2-14.59,13.85-14.59S44,91.71,44,99.77,37.81,114.36,30.16,114.36Zm34.92,23.28c-7.65,0-13.85-6.53-13.85-14.59s6.2-14.59,13.85-14.59S78.93,115,78.93,123.05,72.73,137.64,65.08,137.64ZM74.34,24C74.34,16,80.55,9.44,88.2,9.44S102.05,16,102.05,24,95.85,38.62,88.2,38.62,74.34,32.09,74.34,24Zm36.89,113.61c-7.65,0-13.85-6.53-13.85-14.59s6.2-14.59,13.85-14.59,13.85,6.53,13.85,14.59S118.88,137.64,111.23,137.64Zm37.05-27.87c-7.65,0-13.85-6.53-13.85-14.59s6.2-14.59,13.85-14.59,13.85,6.53,13.85,14.59S155.93,109.77,148.28,109.77Z" transform="translate(-0.16 -0.69)"/></svg>