<svg id="Layer_1" data-name="Layer 1" xmlns="http://www.w3.org/2000/svg" viewBox="0 0 30.09 48.96"><title>location</title><path d="M8.87,11.38,25.21,39.86,39,11.16C23.7-14,8.87,11.38,8.87,11.38ZM24.56,17a4.94,4.94,0,0,1-4.78-5.09,4.94,4.94,0,0,1,4.78-5.09,4.94,4.94,0,0,1,4.79,5.09A4.94,4.94,0,0,1,24.56,17Z" transform="translate(-8.87 -0.04)"/><path d="M29.35,36.26c2.56.82,4.3,2.34,4.3,4.08,0,2.61-3.88,4.73-8.66,4.73S16.34,43,16.34,40.34c0-1.73,1.7-3.23,4.24-4.06-5,.92-8.59,3.33-8.59,6.16C12,46.06,17.82,49,25,49s13-2.94,13-6.56C38.05,39.58,34.41,37.16,29.35,36.26Z" transform="translate(-8.87 -0.04)"/></svg>