<svg id="Layer_1" data-name="Layer 1" xmlns="http://www.w3.org/2000/svg" viewBox="0 0 31.98 32.01"><defs><style>.cls-1,.cls-2,.cls-3{fill:#959595;stroke-miterlimit:10;}.cls-1{stroke:gray;}.cls-2,.cls-3{stroke:#999;}.cls-2{stroke-width:0.5px;}</style></defs><title>newmessage</title><path class="cls-1" d="M23.52.43s.62.34,0,.51H5.83A4.3,4.3,0,0,0,1.22,4.85c-.53,4.21,0,22.29,0,22.29a4.28,4.28,0,0,0,3.6,3.67C8.11,31.36,27,31,27,31a4.68,4.68,0,0,0,4-4.08c.51-3.71,0-22.29,0-22.29s.21-.45.46,0,.05,22,.05,22S31,31.15,27,31.35s-22.25,0-22.25,0-3.75-.8-4-4.21,0-22.5,0-22.5S1.52.43,5.5.43Z" transform="translate(-0.1 0.07)"/><polygon class="cls-2" points="18.28 18.85 16.38 19.97 16.78 17.8 18.28 18.85"/><path class="cls-3" d="M30,2.3l.52-.75S30.29.11,29,.5l-.52.75" transform="translate(-0.1 0.07)"/><path class="cls-3" d="M30,2.3,18.93,18.08l-1.5-1L28.49,1.25ZM17.79,16.91l1.17.82L29.72,2.38l-1.18-.83Z" transform="translate(-0.1 0.07)"/></svg>