<svg id="Layer_1" data-name="Layer 1" xmlns="http://www.w3.org/2000/svg" viewBox="0 0 42.8 47"><title>phonenumber</title><path d="M13.66.14S12.05-.52,8.55,1c0,0-3.11,2.16-4.66,8.71,0,0-.5,4.94,2.55,11.76,0,0,2.33,6.1,3.89,7.38,0,0,5.88,7.93,8.65,9.82,0,0,5.38,4.6,8.1,5.49,0,0,5.6,2.39,6.6,2.39,0,0,6,2.44,11.82-4.39,0,0,1-.88,1.16-5.93,0,0-9.48-6.33-9.59-6.33a1.94,1.94,0,0,0-2,.67l-3.88,4.82s-1,1.23-2.67-.11c0,0-5.77-3.94-7-5.32,0,0-5.83-6.55-6.49-9.32a4,4,0,0,1-.78-3.44s4.55-3.88,4.83-4.94c0,0,1.05,0-.17-3a46.65,46.65,0,0,1-4.16-7.55Z" transform="translate(-3.86)"/><path d="M14.13,19s3.41,14.1,15.8,16.94" transform="translate(-3.86)"/><path d="M18.5,13.17a2.08,2.08,0,0,0,.71-2.68" transform="translate(-3.86)"/></svg>