<svg id="Layer_1" data-name="Layer 1" xmlns="http://www.w3.org/2000/svg" viewBox="0 0 62.86 58"><defs><style>.cls-1{fill:red;}</style></defs><title>favorite</title><path class="cls-1" d="M31.5,13S25.88,0,16,0,1.1,13,1.1,13-1,21.76,1.1,26.83A27.69,27.69,0,0,0,17.2,42.61S29.9,49.88,31.5,58Z" transform="translate(-0.14 0)"/><path class="cls-1" d="M31.64,13S37.26,0,47.15,0,62,13,62,13s2.16,8.74,0,13.81A27.66,27.66,0,0,1,46,42.61S33.25,49.88,31.64,58Z" transform="translate(-0.14 0)"/><polygon class="cls-1" points="31.5 58 28.08 42.3 31.5 13.02 33.72 42.17 31.5 58"/></svg>