<svg id="Layer_1" data-name="Layer 1" xmlns="http://www.w3.org/2000/svg" viewBox="0 0 249 35.85"><defs><style>.cls-1{fill:#06f;}.cls-2{fill:#757575;}</style></defs><title>rating1</title><polygon class="cls-1" points="30.49 35.81 18.84 29.71 7.22 35.85 9.42 22.89 0 13.73 13 11.82 18.8 0.03 24.64 11.81 37.65 13.68 28.25 22.86 30.49 35.81"/><polygon class="cls-2" points="84.25 35.79 72.61 29.69 60.98 35.82 63.19 22.86 53.76 13.7 66.77 11.79 72.57 0 78.4 11.78 91.41 13.65 82.01 22.84 84.25 35.79"/><polygon class="cls-2" points="136.16 35.79 124.52 29.69 112.9 35.82 115.1 22.86 105.68 13.7 118.68 11.79 124.48 0 130.31 11.78 143.32 13.65 133.92 22.84 136.16 35.79"/><polygon class="cls-2" points="189.16 35.79 177.51 29.69 165.89 35.82 168.09 22.86 158.67 13.7 171.67 11.79 177.47 0 183.31 11.78 196.31 13.65 186.92 22.84 189.16 35.79"/><polygon class="cls-2" points="241.84 35.79 230.2 29.69 218.57 35.82 220.78 22.86 211.35 13.7 224.36 11.79 230.16 0 235.99 11.78 249 13.65 239.6 22.84 241.84 35.79"/></svg>