<svg id="Layer_1" data-name="Layer 1" xmlns="http://www.w3.org/2000/svg" viewBox="0 0 109 167"><title>beauty</title><path d="M16,135.09a16,16,0,1,0,16,15.95A16,16,0,0,0,16,135.09Zm0,25.67c-6,0-10.78-4.38-10.78-9.78S10,141.2,16,141.2s10.78,4.38,10.78,9.78S21.91,160.76,16,160.76Z" transform="translate(0 0)" fill="#FFFFFF"/><path d="M49.83,135.09a16,16,0,1,0,16,15.95A15.95,15.95,0,0,0,49.83,135.09Zm0,25.67c-5.95,0-10.78-4.38-10.78-9.78s4.83-9.78,10.78-9.78,10.78,4.38,10.78,9.78S55.79,160.76,49.83,160.76Z" transform="translate(0 0)" fill="#FFFFFF"/><polygon points="26.74 139.28 26.74 102.97 36.26 0 39.05 141.2 34.1 148.38 33.88 103.7 31.91 103.88 31.91 148.38 26.74 139.28" fill="#FFFFFF"/><rect x="100.93" width="8.07" height="167" rx="4.03" fill="#FFFFFF"/><rect x="73.76" width="31.21" height="2.79" fill="#FFFFFF"/><rect x="73.76" y="3.99" width="31.21" height="2.79" fill="#FFFFFF"/><rect x="73.76" y="7.97" width="31.21" height="2.79" fill="#FFFFFF"/><rect x="73.76" y="11.96" width="31.21" height="2.79" fill="#FFFFFF"/><rect x="73.76" y="15.94" width="31.21" height="2.79" fill="#FFFFFF"/><rect x="73.76" y="19.93" width="31.21" height="2.79" fill="#FFFFFF"/><rect x="73.76" y="23.91" width="31.21" height="2.79" fill="#FFFFFF"/><rect x="73.76" y="27.9" width="31.21" height="2.79"/><rect x="73.76" y="31.88" width="31.21" height="2.79"/><rect x="73.76" y="35.87" width="31.21" height="2.79"/><rect x="73.76" y="39.86" width="31.21" height="2.79"/><rect x="73.76" y="43.84" width="31.21" height="2.79"/><rect x="73.76" y="47.83" width="31.21" height="2.79"/><rect x="73.76" y="51.81" width="31.21" height="2.79"/><rect x="73.76" y="55.8" width="31.21" height="2.79"/><rect x="73.76" y="59.78" width="31.21" height="2.79"/><rect x="73.76" y="63.77" width="31.21" height="2.79"/><rect x="73.76" y="67.75" width="31.21" height="2.79"/><rect x="73.76" y="71.74" width="31.21" height="2.79"/><rect x="73.76" y="75.72" width="31.21" height="2.79"/><rect x="73.76" y="79.71" width="31.21" height="2.79"/><rect x="73.76" y="83.7" width="31.21" height="2.79"/><rect x="73.76" y="87.68" width="31.21" height="2.79"/><rect x="73.76" y="91.67" width="31.21" height="2.79"/></svg>