<svg id="Layer_1" data-name="Layer 1" xmlns="http://www.w3.org/2000/svg" viewBox="0 0 93 101"><defs><style>.cls-1{fill:#b7b7b7;}.cls-2,.cls-3{fill:#a4a4a4;}.cls-3{stroke:#747474;stroke-miterlimit:10;}</style></defs><title>businessprofilepic</title><ellipse class="cls-1" cx="46.5" cy="50.5" rx="46.5" ry="50.5"/><rect class="cls-2" x="17.03" y="24.78" width="59.36" height="51.43" rx="5"/><path class="cls-3" d="M42.3,51.33H50.7a5,5,0,0,1,5,5V75.56a0,0,0,0,1,0,0H37.3a0,0,0,0,1,0,0V56.33A5,5,0,0,1,42.3,51.33Z"/><path class="cls-3" d="M16.37,25.33H29.59a0,0,0,0,1,0,0V43.68a5,5,0,0,1-5,5H21.37a5,5,0,0,1-5-5V25.33A0,0,0,0,1,16.37,25.33Z"/><path class="cls-3" d="M30.41,25.33H46.5a0,0,0,0,1,0,0V43.68a5,5,0,0,1-5,5H35.41a5,5,0,0,1-5-5V25.33A0,0,0,0,1,30.41,25.33Z"/><path class="cls-3" d="M46.71,25.33h15.8a0,0,0,0,1,0,0V43.68a5,5,0,0,1-5,5h-5.8a5,5,0,0,1-5-5V25.33A0,0,0,0,1,46.71,25.33Z"/><path class="cls-3" d="M63.18,25.33H76.39a0,0,0,0,1,0,0V43.68a5,5,0,0,1-5,5H68.18a5,5,0,0,1-5-5V25.33A0,0,0,0,1,63.18,25.33Z"/></svg>