<svg id="Layer_1" data-name="Layer 1" xmlns="http://www.w3.org/2000/svg" viewBox="0 0 150.73 158.74"><title>food</title><path d="M-.66,140.89s1.4,20.05,18.49,18l82.82-88s4.88,4.88,11.5,0c0,0,26.7-17.09,37.85-47.08,0,0,.86-3.14-3.5-1.92,0,0-21.27,23.71-29.12,23.71,0,0-7.14,5.41,21.8-31.21,0,0,2.79-4.88-3.66-2.61,0,0-25.63,24.41-28.42,23.71,0,0-4.54-1.39,21.79-32.08,0,0,2.44-4.71-3.14-2.44,0,0-40.8,23.54-44.46,43.94,0,0-1,6.8,1.57,7.49Z" transform="translate(0.66 -0.26)" fill="#FFFFFF"/><path d="M128.13,159s17.18-2.81,16.66-18.41L13.3,1.22S4.54-.54,6.82,28.57c0,0,13.5,55.57,43,56.62l5.78-5.14Z" transform="translate(0.66 -0.26)" fill="#FFFFFF"/><path d="M49.13,84a49.17,49.17,0,0,0,9.62-.8c4.71-.93-6.69-10.78-6.69-10.78Z" transform="translate(0.66 -0.26)"/><path d="M49.77,85.19a41.83,41.83,0,0,0,7.65,0c2.46-.44-7.65-7.81-7.65-7.81Z" transform="translate(0.66 -0.26)"/></svg>