<svg id="Layer_1" data-name="Layer 1" xmlns="http://www.w3.org/2000/svg" viewBox="0 0 152.12 161.16"><title>pets</title><path d="M11.35,44.56S-.88,50.32,0,65.68c0,0,1.4,15.88,3.5,18.33,0,0,3.31,13.61,20.76,14.31,0,0,13.44-.35,13.44-20.25,0,0-2.09-18.32-6.46-24.61C31.24,53.46,21.12,41.6,11.35,44.56Z" transform="translate(0.05 0)" fill="#FFFFFF"/><path d="M49.74,0s15.19.58,19.2,14.2c0,0,5.59,24.6,2.09,32.28,0,0-3.38,13.27-10.07,15.36,0,0-9.82,2.1-15.58-1.74,0,0-11.34-6.11-14.14-21.82,0,0-.87-19.37,1.4-22C32.64,16.29,39.8,0,49.74,0Z" transform="translate(0.05 0)" fill="#FFFFFF"/><path d="M103.32,0s11.34.41,14.14,13.85c0,0,5.06,22,0,35.25,0,0-8.55,13.71-16.58,13.31,0,0-16.23,1.87-20.07-15,0,0-2.45-27.58,2.44-32.81C83.25,14.55,88.14.81,103.32,0Z" transform="translate(0.05 0)" fill="#FFFFFF"/><path d="M142.59,45.09A20.89,20.89,0,0,1,152,64.28s-.34,21.82-7.49,25.83c0,0-9.6,8.21-15,8.21,0,0-12.57-.53-14.49-11.52,0,0-4.53-9.25,3.15-29.32C118.16,57.48,125.14,40.38,142.59,45.09Z" transform="translate(0.05 0)" fill="#FFFFFF"/><path d="M76,74.93s30.81,2.79,39.89,27.05c0,0,12.21,20.07,11.86,38.57,0,0-4.53,27.75-33.5,18.85,0,0-12.22-3.32-12.22-5.06,0,0-7.33-5.62-14.14.52,0,0-7.5,6.14-13.26,6.14,0,0-19.72.14-26.18-9.46,0,0-2.44-1.39-3.31-15.53C25.14,136,28.78,79.47,76,74.93Z" transform="translate(0.05 0)" fill="#FFFFFF"/><path d="M82,154.34S86.34,161,101.9,161" transform="translate(0.05 0)" fill="#FFFFFF"/><path d="M77.77,152.36a24.48,24.48,0,0,1,5,2.86c1.87,1.54,2.21-1.43,2.21-1.43v-5.21Z" transform="translate(0.05 0)" fill="#FFFFFF"/></svg>