<svg id="Layer_1" data-name="Layer 1" xmlns="http://www.w3.org/2000/svg" viewBox="0 0 175.81 159"><title>shopping</title><path d="M3.79,0s-8.1,6.38,0,10c0,0,9-.86,10.87,7.07l7.75,87.59a14.38,14.38,0,0,0,1.38,3.62s.52,15.86,1.73,17.75c0,0,.69,3.28,2.58,4l130,2.41s6-3.1,0-6.72L31,122.24s-1.72,3.1-1-13.62l129,4,17-82.93L20.17,23.79S19,5.34,15.17,3.45C15.17,3.45,14,.34,3.79,0Z" transform="translate(-0.19)" fill="#FFFFFF"/><circle cx="46.34" cy="150.36" r="8.64" fill="#FFFFFF"/><circle cx="142.38" cy="150.36" r="8.64" fill="#FFFFFF"/></svg>