<svg width="44" height="43" viewBox="0 0 44 43" fill="none" xmlns="http://www.w3.org/2000/svg">
<path id="Shape" d="M29.2212 11.4995L24.8745 1.41743C23.701 -0.472473 20.9508 -0.472479 19.7773 1.41742L15.4305 11.4995C15.0303 12.1441 14.4005 12.6131 13.6683 12.812L3.04087 14.0863C0.963485 14.6506 0.138859 17.1544 1.47436 18.8426L9.43699 26.4227C9.8916 26.9974 10.1202 27.7186 10.0795 28.4503L7.88338 39.3948C7.76151 41.5888 9.96198 43.1651 12.0001 42.3438L21.2045 36.9004C21.924 36.6105 22.7278 36.6105 23.4472 36.9004L32.6516 42.3438C34.6897 43.1651 36.8902 41.5888 36.7683 39.3948L34.5722 28.4503C34.5315 27.7186 34.7601 26.9974 35.2147 26.4227L43.1774 18.8426C44.5129 17.1544 43.6883 14.6506 41.6109 14.0863L30.9834 12.812C30.2512 12.6132 29.6215 12.1441 29.2212 11.4995Z" fill="#0066FF"/>
</svg>
