<svg id="Layer_1" data-name="Layer 1" xmlns="http://www.w3.org/2000/svg" viewBox="0 0 55 55"><defs><style>.cls-1{fill:#ffbd59;}.cls-2{fill:#fff;}</style></defs><title>studentseal</title><polygon class="cls-1" points="27.5 0 29.83 3.61 32.67 0.59 34.23 4.45 37.73 1.98 39 6.08 42.92 4.7 42.92 9.04 46.84 8.19 46.05 11.99 50.76 11.99 48.95 16.03 52.99 17.48 50.82 20.07 54.38 22.31 51.06 24.78 55 27.5 51.24 29.73 54.74 32.56 49.8 34.31 52.33 37.99 47.99 38.77 49.43 42.63 45.99 42.09 47.08 46.91 42.08 46.01 42.98 49.93 38.88 48.84 37.97 53.07 34.23 49.81 32.73 55 29.89 51.02 27.5 55 24.82 51.02 22.41 53.97 20.6 50.05 17.23 52.7 16.5 47.94 12.1 50.05 12.58 45.95 8.12 46.73 8.96 41.97 4.8 42.69 6.07 37.93 2.15 37.57 4.56 34.01 1.06 32.5 4.08 29.73 0 27.5 3.53 25.02 0 22.31 4.8 20.5 1.91 17.18 6.07 16.4 4.92 11.93 8.72 12.29 8.12 7.95 13 8.86 11.98 5.06 15.9 5.96 17.16 2.04 20.48 4.63 22.29 0 25.01 3.31 27.5 0"/><path class="cls-2" d="M16,37.14V32.08s-8.38-2.17-9-3.8S8.18,27,8.18,27l19.32-8.2,18.31,7.36s3.26,2.29,0,2.77l-5.67.18-.06,8H38s-9.89-7-20,0Z" transform="translate(0)"/><path class="cls-2" d="M45,29v3.89s-.78,1.63,0,2.17,1,0,1,0,.66.49,0-2.11V29Z" transform="translate(0)"/><path class="cls-2" d="M45.49,35.25" transform="translate(0)"/></svg>